<svg width="143" height="19" viewBox="0 0 143 19" fill="none" xmlns="http://www.w3.org/2000/svg">
<path d="M0.344 18V1.2H4.28V14.448H10.64V1.2H14.576V14.448H20.936V1.2H24.896V18H0.344ZM27.1133 18V1.2H31.0493V7.848H32.6333L36.4253 1.2H41.1053L36.2093 9.336L41.3213 18H36.4253L32.6333 11.4H31.0493V18H27.1133ZM49.6173 18.24C47.1053 18.24 45.0253 17.44 43.3773 15.84C41.7453 14.24 40.9293 12.16 40.9293 9.6C40.9293 7.04 41.7453 4.96 43.3773 3.36C45.0093 1.76 47.0893 0.959999 49.6173 0.959999C52.1453 0.959999 54.2253 1.76 55.8573 3.36C57.5053 4.96 58.3293 7.04 58.3293 9.6C58.3293 12.16 57.5053 14.24 55.8573 15.84C54.2253 17.44 52.1453 18.24 49.6173 18.24ZM46.3053 13.128C47.1533 14.008 48.2573 14.448 49.6173 14.448C50.9773 14.448 52.0813 14.008 52.9293 13.128C53.7773 12.232 54.2013 11.056 54.2013 9.6C54.2013 8.16 53.7693 6.992 52.9053 6.096C52.0573 5.2 50.9613 4.752 49.6173 4.752C48.2573 4.752 47.1533 5.2 46.3053 6.096C45.4573 6.992 45.0333 8.16 45.0333 9.6C45.0333 11.056 45.4573 12.232 46.3053 13.128ZM58.8302 18.24V14.448H59.5982C60.7022 14.448 61.3182 13.768 61.4462 12.408L62.4062 1.2H74.2622V18H70.3022V4.752H66.0542L65.3822 12.408C65.0302 16.296 63.1022 18.24 59.5982 18.24H58.8302ZM86.2276 1.2L92.8516 18H88.6756L87.3556 14.448H80.6596L79.3396 18H75.1636L81.7876 1.2H86.2276ZM81.9556 10.896H86.0356L83.9956 5.496L81.9556 10.896ZM109.737 16.8C108.585 17.76 107.057 18.24 105.153 18.24C103.249 18.24 101.721 17.76 100.569 16.8C99.4172 15.824 98.8412 14.608 98.8412 13.152C98.8412 11.552 99.6012 10.32 101.121 9.456C99.7932 8.656 99.1292 7.504 99.1292 6C99.1292 4.56 99.6652 3.36 100.737 2.4C101.825 1.44 103.297 0.959999 105.153 0.959999C107.025 0.959999 108.497 1.44 109.569 2.4C110.657 3.36 111.201 4.56 111.201 6C111.201 7.504 110.537 8.656 109.209 9.456C110.729 10.32 111.489 11.552 111.489 13.152C111.489 14.608 110.905 15.824 109.737 16.8ZM103.665 7.416C104.065 7.72 104.561 7.872 105.153 7.872C105.745 7.872 106.241 7.72 106.641 7.416C107.041 7.112 107.241 6.696 107.241 6.168C107.241 5.64 107.033 5.216 106.617 4.896C106.217 4.56 105.729 4.392 105.153 4.392C104.593 4.392 104.105 4.56 103.689 4.896C103.273 5.216 103.065 5.64 103.065 6.168C103.065 6.696 103.265 7.112 103.665 7.416ZM105.153 14.808C105.825 14.808 106.385 14.632 106.833 14.28C107.297 13.928 107.529 13.456 107.529 12.864C107.529 12.256 107.305 11.784 106.857 11.448C106.409 11.096 105.841 10.92 105.153 10.92C104.481 10.92 103.921 11.096 103.473 11.448C103.025 11.784 102.801 12.256 102.801 12.864C102.801 13.456 103.025 13.928 103.473 14.28C103.937 14.632 104.497 14.808 105.153 14.808ZM120.058 18.216C117.898 18.216 116.17 17.448 114.874 15.912C113.578 14.376 112.93 12.272 112.93 9.6C112.93 6.912 113.578 4.8 114.874 3.264C116.17 1.712 117.89 0.935999 120.034 0.935999C122.194 0.935999 123.922 1.712 125.218 3.264C126.53 4.8 127.186 6.912 127.186 9.6C127.186 12.272 126.53 14.376 125.218 15.912C123.922 17.448 122.202 18.216 120.058 18.216ZM117.706 13.416C118.282 14.328 119.066 14.784 120.058 14.784C121.05 14.784 121.826 14.328 122.386 13.416C122.946 12.504 123.226 11.232 123.226 9.6C123.226 7.952 122.938 6.672 122.362 5.76C121.802 4.848 121.026 4.392 120.034 4.392C119.058 4.392 118.282 4.848 117.706 5.76C117.146 6.672 116.866 7.952 116.866 9.6C116.866 11.232 117.146 12.504 117.706 13.416ZM135.671 18.216C133.511 18.216 131.783 17.448 130.487 15.912C129.191 14.376 128.543 12.272 128.543 9.6C128.543 6.912 129.191 4.8 130.487 3.264C131.783 1.712 133.503 0.935999 135.647 0.935999C137.807 0.935999 139.535 1.712 140.831 3.264C142.143 4.8 142.799 6.912 142.799 9.6C142.799 12.272 142.143 14.376 140.831 15.912C139.535 17.448 137.815 18.216 135.671 18.216ZM133.319 13.416C133.895 14.328 134.679 14.784 135.671 14.784C136.663 14.784 137.439 14.328 137.999 13.416C138.559 12.504 138.839 11.232 138.839 9.6C138.839 7.952 138.551 6.672 137.975 5.76C137.415 4.848 136.639 4.392 135.647 4.392C134.671 4.392 133.895 4.848 133.319 5.76C132.759 6.672 132.479 7.952 132.479 9.6C132.479 11.232 132.759 12.504 133.319 13.416Z" fill="#222222"/>
</svg>
